<svg width="24" height="24" viewBox="0 0 24 24" fill="none" stroke="currentColor" stroke-width="1.6" stroke-linecap="round" stroke-linejoin="round" xmlns="http://www.w3.org/2000/svg" aria-hidden="true">
  <title>System Settings</title>
  <circle cx="12" cy="12" r="3"/>
  <path d="M19.4 15a1.65 1.65 0 0 0 .33 1.82l.06.06a2 2 0 1 1-2.83 2.83l-.06-.06a1.65 1.65 0 0 0-1.82-.33 1.65 1.65 0 0 0-1 1.51V21a2 2 0 1 1-4 0v-.06a1.65 1.65 0 0 0-1-1.51 1.65 1.65 0 0 0-1.82.33l-.06.06A2 2 0 1 1 2.28 18.9l.06-.06a1.65 1.65 0 0 0 .33-1.82 1.65 1.65 0 0 0-1.51-1H3a2 2 0 1 1 0-4h.06a1.65 1.65 0 0 0 1.51-1 1.65 1.65 0 0 0-.33-1.82L4.28 5.9A2 2 0 1 1 7.11 3.06l.06.06A1.65 1.65 0 0 0 9 3.45c.45-.23.96-.23 1.41 0 .36.19.64.47.83.83.23.45.23.96 0 1.41-.19.36-.47.64-.83.83-.45.23-.45.23-.83.83"/>
</svg>
